
<svg width="417px" height="524px" viewBox="176 36 417 524" version="1.1" xmlns="http://www.w3.org/2000/svg" xmlns:xlink="http://www.w3.org/1999/xlink">
    <!-- Generator: Sketch 39.1 (31720) - http://www.bohemiancoding.com/sketch -->
    <desc>Created with Sketch.</desc>
    <defs></defs>
    <g id="Group-2" stroke="none" stroke-width="1" fill="none" fill-rule="evenodd" transform="translate(179.000000, 39.000000)">
        <path d="M71.9882812,357.136719 C108.559907,378.014957 151.965162,357.136719 205.5,357.136719 C259.569917,357.136719 303.407196,378.474213 340.097656,357.136719 C380.421667,333.686117 411,264.924599 411,205.5 C411,92.0054839 318.994516,0 205.5,0 C92.0054839,0 0,92.0054839 0,205.5 C0,265.459678 31.0276104,333.752835 71.9882812,357.136719 Z" id="Oval" stroke="#FFFFFF" stroke-width="10"></path>
        <g id="Group" transform="translate(74.000000, 359.000000)" stroke="#FFFFFF" stroke-width="10" stroke-linecap="square">
            <path d="M1.5,0.5 L1.5,51.5" id="Line"></path>
            <path d="M1.5,106.5 L1.5,157.5" id="Line"></path>
            <path d="M1.5,54.5 L1.5,105.5" id="Line"></path>
        </g>
        <g id="Group" transform="translate(339.000000, 359.000000)" stroke="#FFFFFF" stroke-width="10" stroke-linecap="square">
            <path d="M1.5,0.5 L1.5,51.5" id="Line"></path>
            <path d="M1.5,106.5 L1.5,157.5" id="Line"></path>
            <path d="M1.5,54.5 L1.5,105.5" id="Line"></path>
        </g>
        <path d="M75.5,517.5 L340.5,517.5" id="Line" stroke="#FFFFFF" stroke-width="10" stroke-linecap="square"></path>
        <path d="M77,464 L342,464" id="Line" stroke="#FFFFFF" stroke-width="10" stroke-linecap="square"></path>
        <path d="M76,410.5 L341,410.5" id="Line" stroke="#FFFFFF" stroke-width="10" stroke-linecap="square"></path>
    </g>
</svg>